<svg id="visual" viewBox="0 0 900 600" width="900" height="600" xmlns="http://www.w3.org/2000/svg" xmlns:xlink="http://www.w3.org/1999/xlink" version="1.1"><rect x="0" y="0" width="900" height="600" fill="#caf0f8"></rect><defs><linearGradient id="grad1_0" x1="33.3%" y1="0%" x2="100%" y2="100%"><stop offset="20%" stop-color="#caf0f8" stop-opacity="1"></stop><stop offset="80%" stop-color="#caf0f8" stop-opacity="1"></stop></linearGradient></defs><defs><linearGradient id="grad2_0" x1="0%" y1="0%" x2="66.7%" y2="100%"><stop offset="20%" stop-color="#caf0f8" stop-opacity="1"></stop><stop offset="80%" stop-color="#caf0f8" stop-opacity="1"></stop></linearGradient></defs><g transform="translate(900, 0)"><path d="M0 486.7C-56.3 456.9 -112.6 427.1 -166.5 401.9C-220.4 376.7 -271.9 356.1 -322.4 322.4C-373 288.8 -422.5 242.2 -449.7 186.3C-476.9 130.4 -481.8 65.2 -486.7 0L0 0Z" fill="#60e3fd"></path></g><g transform="translate(0, 600)"><path d="M0 -486.7C68.5 -481.4 137.1 -476 182.5 -440.7C228 -405.4 250.5 -340.3 297 -297C343.5 -253.7 414.1 -232.1 449.7 -186.3C485.3 -140.4 486 -70.2 486.7 0L0 0Z" fill="#60e3fd"></path></g></svg>