<?xml version="1.0" standalone="no"?>
<svg xmlns:xlink="http://www.w3.org/1999/xlink" id="wave" style="transform:rotate(180deg); transition: 0.3s" viewBox="0 0 1440 190" version="1.1" xmlns="http://www.w3.org/2000/svg"><defs><linearGradient id="sw-gradient-0" x1="0" x2="0" y1="1" y2="0"><stop stop-color="rgba(0, 180, 216, 1)" offset="0%"/><stop stop-color="rgba(0, 180, 216, 1)" offset="100%"/></linearGradient></defs><path style="transform:translate(0, 0px); opacity:1" fill="url(#sw-gradient-0)" d="M0,133L10.4,123.5C20.9,114,42,95,63,82.3C83.5,70,104,63,125,50.7C146.1,38,167,19,188,22.2C208.7,25,230,51,250,60.2C271.3,70,292,63,313,76C333.9,89,355,120,376,123.5C396.5,127,417,101,438,79.2C459.1,57,480,38,501,41.2C521.7,44,543,70,563,79.2C584.3,89,605,82,626,95C647,108,668,139,689,133C709.6,127,730,82,751,82.3C772.2,82,793,127,814,136.2C834.8,146,856,120,877,107.7C897.4,95,918,95,939,101.3C960,108,981,120,1002,129.8C1022.6,139,1043,146,1064,133C1085.2,120,1106,89,1127,66.5C1147.8,44,1169,32,1190,22.2C1210.4,13,1231,6,1252,25.3C1273,44,1294,89,1315,88.7C1335.7,89,1357,44,1377,25.3C1398.3,6,1419,13,1440,31.7C1460.9,51,1482,82,1492,98.2L1502.6,114L1502.6,190L1492.2,190C1481.7,190,1461,190,1440,190C1419.1,190,1398,190,1377,190C1356.5,190,1336,190,1315,190C1293.9,190,1273,190,1252,190C1231.3,190,1210,190,1190,190C1168.7,190,1148,190,1127,190C1106.1,190,1085,190,1064,190C1043.5,190,1023,190,1002,190C980.9,190,960,190,939,190C918.3,190,897,190,877,190C855.7,190,835,190,814,190C793,190,772,190,751,190C730.4,190,710,190,689,190C667.8,190,647,190,626,190C605.2,190,584,190,563,190C542.6,190,522,190,501,190C480,190,459,190,438,190C417.4,190,397,190,376,190C354.8,190,334,190,313,190C292.2,190,271,190,250,190C229.6,190,209,190,188,190C167,190,146,190,125,190C104.3,190,83,190,63,190C41.7,190,21,190,10,190L0,190Z"/></svg>